<?xml version="1.0" encoding="UTF-8" standalone="no"?>
<!-- Created with Inkscape (http://www.inkscape.org/) -->

<svg
   xmlns:dc="http://purl.org/dc/elements/1.1/"
   xmlns:cc="http://creativecommons.org/ns#"
   xmlns:rdf="http://www.w3.org/1999/02/22-rdf-syntax-ns#"
   xmlns:svg="http://www.w3.org/2000/svg"
   xmlns="http://www.w3.org/2000/svg"
   xmlns:sodipodi="http://sodipodi.sourceforge.net/DTD/sodipodi-0.dtd"
   xmlns:inkscape="http://www.inkscape.org/namespaces/inkscape"
   width="210mm"
   height="297mm"
   viewBox="0 0 744.09448819 1052.3622047"
   id="svg2"
   version="1.1"
   inkscape:version="0.91 r13725"
   sodipodi:docname="pytsada-logo-variation-2.svg">
  <defs
     id="defs4" />
  <sodipodi:namedview
     id="base"
     pagecolor="#ffffff"
     bordercolor="#666666"
     borderopacity="1.0"
     inkscape:pageopacity="0.0"
     inkscape:pageshadow="2"
     inkscape:zoom="0.79725402"
     inkscape:cx="372.04724"
     inkscape:cy="526.1811"
     inkscape:document-units="px"
     inkscape:current-layer="layer1"
     showgrid="false"
     inkscape:window-width="1920"
     inkscape:window-height="1016"
     inkscape:window-x="0"
     inkscape:window-y="27"
     inkscape:window-maximized="1" />
  <metadata
     id="metadata7">
    <rdf:RDF>
      <cc:Work
         rdf:about="">
        <dc:format>image/svg+xml</dc:format>
        <dc:type
           rdf:resource="http://purl.org/dc/dcmitype/StillImage" />
        <dc:title></dc:title>
      </cc:Work>
    </rdf:RDF>
  </metadata>
  <g
     inkscape:label="Layer 1"
     inkscape:groupmode="layer"
     id="layer1">
    <g
       id="g4256"
       transform="matrix(1.3526482,0,0,1.3526482,-120.676,-74.122552)">
      <path
         id="path3336"
         d="m 363,150.36133 a 127,127 0 0 0 -126.82227,122 l -0.17773,0 0,5 0,82.65039 -90.94531,0 0,-0.008 -23.21289,0 c -12.49718,0 -22.558597,10.06148 -22.558597,22.55859 l 0,21.79297 33.466797,0 0,0.006 103.25,0 0,202.49609 0.125,0 A 127,127 0 0 1 280.5,512.59766 l 0,-108.23633 82.5,0 0.29297,0 0,-0.0156 A 127,127 0 0 0 490,277.36133 a 127,127 0 0 0 -127,-127 z m 0,44.32617 a 82.674507,82.674507 0 0 1 82.67383,82.67383 82.674507,82.674507 0 0 1 -82.38086,82.66601 l 0,-0.0156 -0.79688,0 a 82.674507,82.674507 0 0 1 -1.74609,-0.0879 l 0,0.0879 -80.25,0 0,-77.73828 0,-8.37696 A 82.674507,82.674507 0 0 1 363,194.6875 Z M 121.94141,368.13867 a 10.34802,10.34802 0 0 1 10.34961,10.34766 10.34802,10.34802 0 0 1 -10.34961,10.34765 10.34802,10.34802 0 0 1 -10.34766,-10.34765 10.34802,10.34802 0 0 1 10.34766,-10.34766 z M 280.5,606.59766 a 82.674507,82.674507 0 0 0 -0.0137,0.25976 l 0.0137,0 0,-0.25976 z"
         style="fill:#3776ab;fill-opacity:1;fill-rule:evenodd;stroke:none;stroke-width:1px;stroke-linecap:butt;stroke-linejoin:miter;stroke-opacity:1"
         inkscape:connector-curvature="0" />
      <path
         id="path4176"
         d="m 448.03125,280.74023 0,0.25977 a 82.674507,82.674507 0 0 0 0.0137,-0.25977 l -0.0137,0 z m 44.375,0 A 127,127 0 0 1 448.03125,375 l 0,108.23633 -82.5,0 -0.29297,0 0,0.0156 a 127,127 0 0 0 -6.91211,0.36133 l 0,44.32813 a 82.674507,82.674507 0 0 1 6.91211,-0.3711 l 0,0.0156 0.79688,0 a 82.674507,82.674507 0 0 1 1.74609,0.0879 l 0,-0.0879 80.25,0 0,77.73828 0,8.37695 a 82.674507,82.674507 0 0 1 -82.5,79.20899 82.674507,82.674507 0 0 1 -82.67383,-82.67383 82.674507,82.674507 0 0 1 36.35938,-68.38281 l -36.61914,-27.71094 a 127,127 0 0 0 -44.06641,96.09375 127,127 0 0 0 127,127 127,127 0 0 0 126.82227,-122 l 0.17773,0 0,-5 0,-82.65039 90.94531,0 0,0.008 23.21289,0 c 12.49718,0 22.5586,-10.06148 22.5586,-22.55859 l 0,-21.79297 -33.4668,0 0,-0.006 -103.25,0 0,-202.4961 -0.125,0 z m 114.18359,218.02344 a 10.34802,10.34802 0 0 1 10.34766,10.34766 10.34802,10.34802 0 0 1 -10.34766,10.34765 10.34802,10.34802 0 0 1 -10.34961,-10.34765 10.34802,10.34802 0 0 1 10.34961,-10.34766 z"
         style="fill:#ffd343;fill-opacity:1;fill-rule:evenodd;stroke:none;stroke-width:1px;stroke-linecap:butt;stroke-linejoin:miter;stroke-opacity:1"
         inkscape:connector-curvature="0" />
    </g>
  </g>
</svg>
