<?xml version="1.0" encoding="UTF-8" standalone="no"?>
<!-- Created with Inkscape (http://www.inkscape.org/) -->

<svg
   xmlns:dc="http://purl.org/dc/elements/1.1/"
   xmlns:cc="http://creativecommons.org/ns#"
   xmlns:rdf="http://www.w3.org/1999/02/22-rdf-syntax-ns#"
   xmlns:svg="http://www.w3.org/2000/svg"
   xmlns="http://www.w3.org/2000/svg"
   xmlns:sodipodi="http://sodipodi.sourceforge.net/DTD/sodipodi-0.dtd"
   xmlns:inkscape="http://www.inkscape.org/namespaces/inkscape"
   width="210mm"
   height="297mm"
   viewBox="0 0 744.09448819 1052.3622047"
   id="svg2"
   version="1.1"
   inkscape:version="0.48.4 r9939"
   sodipodi:docname="pytsada-logo-variation-3.svg">
  <defs
     id="defs4" />
  <sodipodi:namedview
     id="base"
     pagecolor="#ffffff"
     bordercolor="#666666"
     borderopacity="1.0"
     inkscape:pageopacity="0.0"
     inkscape:pageshadow="2"
     inkscape:zoom="0.7963038"
     inkscape:cx="458.62297"
     inkscape:cy="317.03238"
     inkscape:document-units="px"
     inkscape:current-layer="layer1"
     showgrid="false"
     inkscape:window-width="1920"
     inkscape:window-height="1021"
     inkscape:window-x="0"
     inkscape:window-y="27"
     inkscape:window-maximized="1"
     showguides="true"
     inkscape:guide-bbox="true"
     inkscape:snap-global="false">
    <sodipodi:guide
       orientation="0,1"
       position="373.46942,307.61839"
       id="guide2991" />
    <inkscape:grid
       type="xygrid"
       id="grid2993" />
  </sodipodi:namedview>
  <metadata
     id="metadata7">
    <rdf:RDF>
      <cc:Work
         rdf:about="">
        <dc:format>image/svg+xml</dc:format>
        <dc:type
           rdf:resource="http://purl.org/dc/dcmitype/StillImage" />
        <dc:title />
      </cc:Work>
    </rdf:RDF>
  </metadata>
  <g
     inkscape:label="Layer 1"
     inkscape:groupmode="layer"
     id="layer1">
    <path
       id="path4213"
       d="M 370.39247,142.46341 A 166.07349,166.07349 0 0 0 204.55139,301.99857 l -0.23241,0 0,6.53833 0,108.07905 -118.92603,0 0,-0.0105 -30.354691,0 c -16.342129,0 -29.499098,13.15705 -29.499098,29.49909 l 0,28.49791 43.763373,0 0,0.008 135.016446,0 0,264.79711 0.16345,0 a 166.07349,166.07349 0 0 1 58.02765,-123.26022 l 0,-141.53689 107.88239,0 0.38311,0 0,-0.0204 A 166.07349,166.07349 0 0 0 536.46595,308.53687 166.07349,166.07349 0 0 0 370.39247,142.46338 z m 0,57.96379 A 108.11058,108.11058 0 0 1 478.50212,308.5369 108.11058,108.11058 0 0 1 370.77558,416.63637 l 0,-0.0204 -1.04206,0 a 108.11058,108.11058 0 0 1 -2.2833,-0.11494 l 0,0.11494 -104.94014,0 0,-101.65565 0,-10.95426 A 108.11058,108.11058 0 0 1 370.39247,200.42723 z M 55.168516,427.24328 A 13.531747,13.531747 0 0 1 68.702341,440.77455 13.531747,13.531747 0 0 1 55.168516,454.30582 13.531747,13.531747 0 0 1 41.63724,440.77455 13.531747,13.531747 0 0 1 55.168516,427.24328 z M 262.51008,739.06782 a 108.11058,108.11058 0 0 0 -0.0179,0.33968 l 0.0179,0 0,-0.33968 z"
       style="fill:#3776ab;fill-opacity:1;fill-rule:evenodd;stroke:none"
       inkscape:connector-curvature="0" />
    <path
       inkscape:connector-curvature="0"
       style="fill:#ffd343;fill-opacity:1;fill-rule:evenodd;stroke:none"
       d="M 373.702,909.8988 A 166.07349,166.07349 0 0 0 539.54302,750.36363 l 0.2325,0 0,-6.53832 0,-108.07905 118.92601,0 0,0.0105 30.35471,0 c 16.34215,0 29.49909,-13.15705 29.49909,-29.49909 l 0,-28.49791 -43.76337,0 0,-0.008 -135.01644,0 0,-264.79711 -0.16346,0 a 166.07349,166.07349 0 0 1 -58.02765,123.26021 l 0,141.5369 -107.88241,0 -0.38311,0 0,0.0204 A 166.07349,166.07349 0 0 0 207.62851,743.82533 166.07349,166.07349 0 0 0 373.702,909.89882 z m 0,-57.9638 A 108.11058,108.11058 0 0 1 265.5923,743.82531 108.11058,108.11058 0 0 1 373.31889,635.72583 l 0,0.0204 1.04206,0 a 108.11058,108.11058 0 0 1 2.2833,0.11495 l 0,-0.11495 104.94016,0 0,101.65565 0,10.95426 A 108.11058,108.11058 0 0 1 373.702,851.93498 z M 688.92599,625.11893 a 13.531747,13.531747 0 0 1 -13.53381,-13.53128 13.531747,13.531747 0 0 1 13.53381,-13.53126 13.531747,13.531747 0 0 1 13.5312,13.53126 13.531747,13.531747 0 0 1 -13.5312,13.53128 z M 481.58441,313.29438 a 108.11058,108.11058 0 0 0 0.0183,-0.33968 l -0.0183,0 0,0.33968 z"
       id="path4215" />
    <path
       sodipodi:type="arc"
       style="fill:#3776ab;fill-opacity:1;stroke:none"
       id="path3814"
       sodipodi:cx="1287.1971"
       sodipodi:cy="468.41418"
       sodipodi:rx="224.78857"
       sodipodi:ry="224.78857"
       d="m 1511.9857,468.41418 a 224.78857,224.78857 0 1 1 -449.5771,0 224.78857,224.78857 0 1 1 449.5771,0 z"
       transform="translate(-2.7411178e-6,0)" />
    <path
       transform="matrix(0.48044691,0,0,0.48044691,668.76725,243.36604)"
       d="m 1511.9857,468.41418 a 224.78857,224.78857 0 1 1 -449.5771,0 224.78857,224.78857 0 1 1 449.5771,0 z"
       sodipodi:ry="224.78857"
       sodipodi:rx="224.78857"
       sodipodi:cy="468.41418"
       sodipodi:cx="1287.1971"
       id="path3816"
       style="fill:#ffffff;fill-opacity:1;stroke:none"
       sodipodi:type="arc" />
    <text
       xml:space="preserve"
       style="font-size:40px;font-style:normal;font-variant:normal;font-weight:normal;font-stretch:normal;line-height:125%;letter-spacing:100px;word-spacing:0px;fill:#000000;fill-opacity:1;stroke:none;font-family:Cantarell;-inkscape-font-specification:Cantarell"
       x="1391.0304"
       y="825.03772"
       id="text3841"
       sodipodi:linespacing="125%"
       transform="translate(-4.9229925e-6,0)"><tspan
         sodipodi:role="line"
         id="tspan3843"></tspan></text>
    <text
       sodipodi:linespacing="0%"
       id="text3845"
       y="1711.0934"
       x="471.08582"
       style="font-size:128px;font-style:normal;font-variant:normal;font-weight:normal;font-stretch:normal;line-height:0%;letter-spacing:0px;word-spacing:0px;fill:#000000;fill-opacity:1;stroke:none;font-family:Cantarell;-inkscape-font-specification:Cantarell"
       xml:space="preserve"
       transform="matrix(0.70710678,-0.70710678,0.70710678,0.70710678,0,0)"><tspan
         style="font-size:128px;font-style:normal;font-variant:normal;font-weight:bold;font-stretch:normal;line-height:0%;font-family:Waree;-inkscape-font-specification:Waree Bold"
         y="1711.0934"
         x="471.08582"
         id="tspan3847"
         sodipodi:role="line" /></text>
    <path
       transform="translate(403.14574,469.74471)"
       d="m 1511.9857,468.41418 a 224.78857,224.78857 0 1 1 -449.5771,0 224.78857,224.78857 0 1 1 449.5771,0 z"
       sodipodi:ry="224.78857"
       sodipodi:rx="224.78857"
       sodipodi:cy="468.41418"
       sodipodi:cx="1287.1971"
       id="path3849"
       style="fill:#ffd343;fill-opacity:1;stroke:none"
       sodipodi:type="arc" />
    <path
       sodipodi:type="arc"
       style="fill:#ffffff;fill-opacity:1;stroke:none"
       id="path3851"
       sodipodi:cx="1287.1971"
       sodipodi:cy="468.41418"
       sodipodi:rx="224.78857"
       sodipodi:ry="224.78857"
       d="m 1511.9857,468.41418 a 224.78857,224.78857 0 1 1 -449.5771,0 224.78857,224.78857 0 1 1 449.5771,0 z"
       transform="matrix(0.48044691,0,0,0.48044691,1071.913,713.11075)" />
    <path
       transform="matrix(-0.22295976,0.42557982,-0.42557982,-0.22295976,2176.6837,494.79129)"
       d="m 1511.9857,468.41418 a 224.78857,224.78857 0 1 1 -449.5771,0 224.78857,224.78857 0 1 1 449.5771,0 z"
       sodipodi:ry="224.78857"
       sodipodi:rx="224.78857"
       sodipodi:cy="468.41418"
       sodipodi:cx="1287.1971"
       id="path3853"
       style="fill:none;stroke:#000000;stroke-opacity:1"
       sodipodi:type="arc" />
  </g>
</svg>
