<?xml version="1.0" encoding="UTF-8" standalone="no"?>
<!-- Created with Inkscape (http://www.inkscape.org/) -->

<svg
   xmlns:dc="http://purl.org/dc/elements/1.1/"
   xmlns:cc="http://creativecommons.org/ns#"
   xmlns:rdf="http://www.w3.org/1999/02/22-rdf-syntax-ns#"
   xmlns:svg="http://www.w3.org/2000/svg"
   xmlns="http://www.w3.org/2000/svg"
   xmlns:sodipodi="http://sodipodi.sourceforge.net/DTD/sodipodi-0.dtd"
   xmlns:inkscape="http://www.inkscape.org/namespaces/inkscape"
   width="1052.3622"
   height="744.09448"
   viewBox="0 0 1052.3622 744.09449"
   id="svg2"
   version="1.1"
   inkscape:version="0.48.4 r9939"
   sodipodi:docname="pytsada-logo-variation-3.svg"
   inkscape:export-filename="/home/eric/devel/logo-proposals/eml/exported/pytsada-logo-variation-3.png"
   inkscape:export-xdpi="90"
   inkscape:export-ydpi="90">
  <defs
     id="defs4" />
  <sodipodi:namedview
     id="base"
     pagecolor="#ffffff"
     bordercolor="#666666"
     borderopacity="1.0"
     inkscape:pageopacity="0.0"
     inkscape:pageshadow="2"
     inkscape:zoom="1.1046984"
     inkscape:cx="448.10474"
     inkscape:cy="372.04724"
     inkscape:document-units="px"
     inkscape:current-layer="layer1"
     showgrid="false"
     inkscape:window-width="1920"
     inkscape:window-height="1021"
     inkscape:window-x="0"
     inkscape:window-y="27"
     inkscape:window-maximized="1"
     showguides="true"
     inkscape:guide-bbox="true"
     inkscape:snap-global="false">
    <inkscape:grid
       type="xygrid"
       id="grid2993"
       empspacing="5"
       visible="true"
       enabled="true"
       snapvisiblegridlinesonly="true" />
  </sodipodi:namedview>
  <metadata
     id="metadata7">
    <rdf:RDF>
      <cc:Work
         rdf:about="">
        <dc:format>image/svg+xml</dc:format>
        <dc:type
           rdf:resource="http://purl.org/dc/dcmitype/StillImage" />
        <dc:title></dc:title>
      </cc:Work>
    </rdf:RDF>
  </metadata>
  <g
     inkscape:label="Layer 1"
     inkscape:groupmode="layer"
     id="layer1"
     transform="translate(0,-308.26771)">
    <g
       id="g4500"
       transform="matrix(0.82427591,0,0,0.82427591,-89.4999,261.80174)">
      <path
         id="path3199"
         transform="translate(-4.9229925e-6,0)"
         d="m 317.34375,216.3125 c -46.35529,0 -82.68461,33.14219 -105.46875,74.875 -13.45739,24.64937 -23.34521,53.48614 -29.1875,85.125 l -49.84375,0 0,61.28125 43.78125,0 c -0.0527,2.68773 -0.0937,5.38273 -0.0937,8.09375 l 0,124.0625 c 0,24.16022 2.11414,47.42682 6.15625,69.34375 l 70.1875,0 C 247.97776,618.17252 245.0938,594.62594 245.0938,569.75 l 0,-124.0625 c 0,-2.71559 0.0261,-5.41179 0.0937,-8.09375 l 222.375,0 0,-0.0937 61.5,0 C 527.95783,381.66013 515.57005,330.9827 493.84375,291.1875 471.05961,249.45469 434.73029,216.3125 388.375,216.3125 l -71.03125,0 z m 0,68.53125 71.03125,0 c 12.66329,0 29.58542,10.38083 45.3125,39.1875 7.73974,14.17658 14.36809,32.00011 19.125,52.28125 l -199.90625,0 c 4.75408,-20.27868 11.38573,-38.10554 19.125,-52.28125 15.72708,-28.80667 32.64921,-39.1875 45.3125,-39.1875 z"
         style="font-size:medium;font-style:normal;font-variant:normal;font-weight:normal;font-stretch:normal;text-indent:0;text-align:start;text-decoration:none;line-height:normal;letter-spacing:normal;word-spacing:normal;text-transform:none;direction:ltr;block-progression:tb;writing-mode:lr-tb;text-anchor:start;baseline-shift:baseline;color:#000000;fill:#3776ab;fill-opacity:1;stroke:none;stroke-width:1;marker:none;visibility:visible;display:inline;overflow:visible;enable-background:accumulate;font-family:Sans;-inkscape-font-specification:Sans"
         inkscape:connector-curvature="0" />
      <path
         transform="translate(-4.9229925e-6,0)"
         id="rect3170"
         d="m 460.59375,441.5 c 0.018,1.38801 0.0312,2.79081 0.0312,4.1875 l 0,124.0625 c 0,2.71559 -0.0261,5.41161 -0.0937,8.09375 l -211.34375,0 c 0.55212,21.88528 3.32532,42.61476 7.6875,61.25 l -14.75,0 0,0.0625 210.6875,0 c -4.75408,20.28637 -11.38573,38.10554 -19.125,52.28125 -15.72708,28.80667 -32.64921,39.15625 -45.3125,39.15625 l -71.03125,0 c -12.66329,0 -29.58542,-10.34958 -45.3125,-39.15625 -7.23438,-13.25092 -13.51605,-29.68644 -18.1875,-48.34375 l -70.375,0 c 5.92145,30.09964 15.51048,57.56682 28.40625,81.1875 22.78414,41.73281 59.11346,74.875 105.46875,74.875 l 71.03125,0 c 46.35529,0 82.68461,-33.14219 105.46875,-74.875 13.45688,-24.64844 23.3228,-53.47863 29.15625,-85.125 l 49.84375,0 0,-61.3125 -43.78125,0 c 0.0525,-2.68786 0.0937,-5.38273 0.0937,-8.09375 l 0,-124.0625 c 0,-1.39756 -0.0173,-2.79605 -0.0312,-4.1875 l -68.53125,0 z"
         style="font-size:medium;font-style:normal;font-variant:normal;font-weight:normal;font-stretch:normal;text-indent:0;text-align:start;text-decoration:none;line-height:normal;letter-spacing:normal;word-spacing:normal;text-transform:none;direction:ltr;block-progression:tb;writing-mode:lr-tb;text-anchor:start;baseline-shift:baseline;color:#000000;fill:#ffd343;fill-opacity:1;stroke:none;stroke-width:1;marker:none;visibility:visible;display:inline;overflow:visible;enable-background:accumulate;font-family:Sans;-inkscape-font-specification:Sans"
         inkscape:connector-curvature="0" />
    </g>
    <text
       xml:space="preserve"
       style="font-size:16.1216507px;font-style:normal;font-variant:normal;font-weight:300;font-stretch:normal;line-height:0%;letter-spacing:-8.06082535px;word-spacing:0px;fill:#000000;fill-opacity:1;stroke:none;font-family:Source Code Pro;-inkscape-font-specification:Source Code Pro Light"
       x="387.42917"
       y="721.18335"
       id="text2994"
       sodipodi:linespacing="0%"><tspan
         sodipodi:role="line"
         id="tspan2996"
         x="387.42917"
         y="721.18335"
         style="font-size:161.21650696px;font-weight:bold;letter-spacing:-8.06082535px;-inkscape-font-specification:Source Code Pro Bold">PyTsada</tspan></text>
  </g>
</svg>
