<?xml version="1.0" encoding="UTF-8" standalone="no"?>
<!-- Created with Inkscape (http://www.inkscape.org/) -->

<svg
   xmlns:dc="http://purl.org/dc/elements/1.1/"
   xmlns:cc="http://creativecommons.org/ns#"
   xmlns:rdf="http://www.w3.org/1999/02/22-rdf-syntax-ns#"
   xmlns:svg="http://www.w3.org/2000/svg"
   xmlns="http://www.w3.org/2000/svg"
   xmlns:sodipodi="http://sodipodi.sourceforge.net/DTD/sodipodi-0.dtd"
   xmlns:inkscape="http://www.inkscape.org/namespaces/inkscape"
   width="210mm"
   height="297mm"
   viewBox="0 0 744.09448819 1052.3622047"
   id="svg2"
   version="1.1"
   inkscape:version="0.91 r13725"
   sodipodi:docname="logo_suggestion.svg">
  <defs
     id="defs4" />
  <sodipodi:namedview
     id="base"
     pagecolor="#ffffff"
     bordercolor="#666666"
     borderopacity="1.0"
     inkscape:pageopacity="0.0"
     inkscape:pageshadow="2"
     inkscape:zoom="0.7"
     inkscape:cx="172.34374"
     inkscape:cy="472.73273"
     inkscape:document-units="px"
     inkscape:current-layer="layer1"
     showgrid="false"
     inkscape:window-width="1920"
     inkscape:window-height="1057"
     inkscape:window-x="-8"
     inkscape:window-y="-8"
     inkscape:window-maximized="1" />
  <metadata
     id="metadata7">
    <rdf:RDF>
      <cc:Work
         rdf:about="">
        <dc:format>image/svg+xml</dc:format>
        <dc:type
           rdf:resource="http://purl.org/dc/dcmitype/StillImage" />
        <dc:title></dc:title>
      </cc:Work>
    </rdf:RDF>
  </metadata>
  <g
     inkscape:label="Layer 1"
     inkscape:groupmode="layer"
     id="layer1">
    <path
       style="fill:#c23b0b;fill-opacity:1;stroke:none;stroke-width:5;stroke-linecap:round;stroke-linejoin:round;stroke-miterlimit:4;stroke-dasharray:none;stroke-dashoffset:0;stroke-opacity:1"
       id="path3344"
       d="m 97.523601,459.31236 c 13.539439,-10.62053 28.406979,-19.3881 43.330859,-27.88315 5.37506,-3.05962 38.43469,-22.50557 50.77719,-27.02621 4.26241,-1.56118 8.84861,-2.03073 13.27292,-3.0461 1.93028,1.3263 5.59467,1.64512 5.79085,3.97892 0.78561,9.34599 -15.35755,21.5924 -19.21557,24.9404 -6.17462,5.35837 -12.73281,10.25868 -19.1595,15.31199 -37.41853,29.42219 -2.98335,1.58798 -39.02763,31.00812 -12.17313,11.05049 -18.51941,16.1969 -29.24041,28.1029 -3.42801,3.8069 -14.076718,13.79518 -11.028615,21.56632 3.980908,10.14933 20.410505,13.77231 27.979975,16.73992 9.36805,0.21192 18.81222,1.84632 28.10413,0.63575 25.90301,-3.37468 62.17798,-16.49865 85.66516,-25.64196 26.44685,-10.29548 55.42293,-23.751 80.9487,-36.45461 10.08853,-5.02083 19.97949,-10.42919 29.96923,-15.64379 0,0 -13.28021,10.65262 -13.28021,10.65262 l 0,0 c -9.73174,4.98432 -19.37348,10.14843 -29.19523,14.95298 -25.39023,12.42023 -54.04426,25.52117 -80.25602,35.70792 -23.89154,9.28504 -61.86016,23.17326 -88.13308,26.75911 -9.70523,1.32462 -19.58733,-0.34693 -29.381,-0.5204 -9.308177,-3.5668 -25.669644,-6.77851 -30.369635,-18.4176 -3.479564,-8.61682 7.43045,-18.60529 11.486457,-23.0671 10.923121,-12.01599 17.541548,-17.41846 29.861848,-28.58269 6.34773,-5.18766 12.62764,-10.45942 19.04318,-15.56298 10.29711,-8.19134 28.4817,-21.69234 38.59669,-30.38654 0.075,-0.0645 18.54234,-15.45161 19.21837,-21.04185 0.20366,-1.68409 -2.68638,-2.07219 -4.02957,-3.10828 -4.16298,0.98767 -8.4806,1.46662 -12.48892,2.96303 -5.66058,2.11323 -10.86734,5.28749 -16.35928,7.8067 -0.6758,0.30999 -1.47682,0.31155 -2.12659,0.67296 -14.34358,7.97817 -28.4552,16.54287 -41.42009,26.64366 0,0 -19.334209,7.93996 -19.334209,7.93996 z"
       inkscape:connector-curvature="0"
       inkscape:export-xdpi="37.849998"
       inkscape:export-ydpi="37.849998" />
    <text
       xml:space="preserve"
       style="font-style:normal;font-weight:normal;font-size:27.64192772px;line-height:125%;font-family:Sans;letter-spacing:0px;word-spacing:0px;fill:#000000;fill-opacity:1;stroke:none;stroke-width:1px;stroke-linecap:butt;stroke-linejoin:miter;stroke-opacity:1"
       x="66.124603"
       y="265.9696"
       id="text3346"
       sodipodi:linespacing="125%"
       inkscape:export-xdpi="37.849998"
       inkscape:export-ydpi="37.849998"><tspan
         sodipodi:role="line"
         id="tspan3348"
         x="66.124603"
         y="265.9696">Wavy lines that can be interpreted as</tspan><tspan
         sodipodi:role="line"
         x="66.124603"
         y="300.522"
         id="tspan3350">a river or the body of a snake</tspan></text>
    <path
       style="fill:none;fill-rule:evenodd;stroke:#000000;stroke-width:1px;stroke-linecap:butt;stroke-linejoin:miter;stroke-opacity:1"
       d="m 244.28571,320.93363 -28.57142,57.14286"
       id="path3354"
       inkscape:connector-curvature="0"
       inkscape:export-xdpi="37.849998"
       inkscape:export-ydpi="37.849998" />
    <path
       style="fill:#c23b0b;fill-rule:evenodd;stroke:#070200;stroke-width:5;stroke-linecap:butt;stroke-linejoin:miter;stroke-miterlimit:4;stroke-dasharray:none;stroke-opacity:1;fill-opacity:1"
       d="m 277.14286,509.50506 34.28571,-90 60,-30 25.71429,44.28572 -44.28571,98.57143 z"
       id="path3366"
       inkscape:connector-curvature="0"
       inkscape:export-xdpi="37.849998"
       inkscape:export-ydpi="37.849998" />
    <path
       style="fill:none;fill-rule:evenodd;stroke:#000000;stroke-width:1px;stroke-linecap:butt;stroke-linejoin:miter;stroke-opacity:1"
       d="m 347.14286,556.64792 15.71428,65.71428"
       id="path4168"
       inkscape:connector-curvature="0"
       inkscape:export-xdpi="37.849998"
       inkscape:export-ydpi="37.849998" />
    <text
       xml:space="preserve"
       style="font-style:normal;font-weight:normal;font-size:28.70653152px;line-height:125%;font-family:Sans;letter-spacing:0px;word-spacing:0px;fill:#000000;fill-opacity:1;stroke:none;stroke-width:1px;stroke-linecap:butt;stroke-linejoin:miter;stroke-opacity:1"
       x="27.109777"
       y="686.63898"
       id="text4170"
       sodipodi:linespacing="125%"
       inkscape:export-xdpi="37.849998"
       inkscape:export-ydpi="37.849998"><tspan
         sodipodi:role="line"
         id="tspan4172"
         x="27.109777"
         y="686.63898">This could represent a river boat or</tspan><tspan
         sodipodi:role="line"
         x="27.109777"
         y="722.52216"
         id="tspan4176">the head of a snake</tspan></text>
    <ellipse
       style="fill:#c23b0b;fill-opacity:1;stroke:#0c0c0c;stroke-width:5;stroke-linecap:round;stroke-linejoin:round;stroke-miterlimit:4;stroke-dasharray:none;stroke-dashoffset:0;stroke-opacity:1"
       id="path4180"
       cx="324.28574"
       cy="379.50504"
       rx="21.428572"
       ry="18.571428"
       inkscape:export-xdpi="37.849998"
       inkscape:export-ydpi="37.849998" />
    <circle
       style="fill:#c23b0b;fill-opacity:1;stroke:#0c0c0c;stroke-width:5;stroke-linecap:round;stroke-linejoin:round;stroke-miterlimit:4;stroke-dasharray:none;stroke-dashoffset:0;stroke-opacity:1"
       id="path4182"
       cx="406.42859"
       cy="383.07648"
       r="20.714285"
       inkscape:export-xdpi="37.849998"
       inkscape:export-ydpi="37.849998" />
    <path
       style="fill:none;fill-rule:evenodd;stroke:#000000;stroke-width:1px;stroke-linecap:butt;stroke-linejoin:miter;stroke-opacity:1"
       d="m 437.14286,378.07649 58.57143,21.42857"
       id="path4184"
       inkscape:connector-curvature="0"
       sodipodi:nodetypes="cc"
       inkscape:export-xdpi="37.849998"
       inkscape:export-ydpi="37.849998" />
    <text
       xml:space="preserve"
       style="font-style:normal;font-weight:normal;font-size:25.49671364px;line-height:125%;font-family:Sans;letter-spacing:0px;word-spacing:0px;fill:#000000;fill-opacity:1;stroke:none;stroke-width:1px;stroke-linecap:butt;stroke-linejoin:miter;stroke-opacity:1"
       x="508.52893"
       y="412.7717"
       id="text4186"
       sodipodi:linespacing="125%"
       inkscape:export-xdpi="37.849998"
       inkscape:export-ydpi="37.849998"><tspan
         sodipodi:role="line"
         id="tspan4188"
         x="508.52893"
         y="412.7717">This could represent people riding</tspan><tspan
         sodipodi:role="line"
         x="508.52893"
         y="444.64258"
         id="tspan4190">the boat or the eyes of a snake</tspan></text>
  </g>
</svg>
